<mxfile host="65bd71144e">
    <diagram id="HIP3nbAZw_EuaXWnEj3U" name="Page-1">
        <mxGraphModel dx="606" dy="531" grid="1" gridSize="10" guides="1" tooltips="1" connect="1" arrows="1" fold="1" page="1" pageScale="1" pageWidth="850" pageHeight="1100" background="#ffffff" math="0" shadow="0">
            <root>
                <mxCell id="0"/>
                <mxCell id="1" parent="0"/>
                <mxCell id="7" value="http://ics2o.mths.ca" style="swimlane;whiteSpace=wrap;html=1;fillColor=#eeeeee;strokeColor=#36393d;" parent="1" vertex="1">
                    <mxGeometry x="40" width="930" height="480" as="geometry"/>
                </mxCell>
                <mxCell id="8" value="Random Number Generator&amp;nbsp;" style="whiteSpace=wrap;html=1;fillColor=#b0e3e6;strokeColor=#0e8088;fontColor=#000000;fontSize=21;" parent="7" vertex="1">
                    <mxGeometry y="20" width="930" height="60" as="geometry"/>
                </mxCell>
                <mxCell id="9" value="Generate a random number from -6 to 6" style="text;html=1;align=center;verticalAlign=middle;resizable=0;points=[];autosize=1;strokeColor=none;fillColor=none;fontSize=21;fontColor=#000000;" parent="7" vertex="1">
                    <mxGeometry y="90" width="400" height="40" as="geometry"/>
                </mxCell>
                <mxCell id="10" value="Negative&amp;nbsp;" style="text;html=1;align=center;verticalAlign=middle;resizable=0;points=[];autosize=1;strokeColor=none;fillColor=none;fontSize=21;fontColor=#000000;" parent="7" vertex="1">
                    <mxGeometry y="140" width="110" height="40" as="geometry"/>
                </mxCell>
                <mxCell id="11" value="" style="ellipse;whiteSpace=wrap;html=1;aspect=fixed;fontSize=21;fontColor=#000000;" parent="7" vertex="1">
                    <mxGeometry x="100" y="140" width="40" height="40" as="geometry"/>
                </mxCell>
                <mxCell id="12" value="Positive" style="text;html=1;align=center;verticalAlign=middle;resizable=0;points=[];autosize=1;strokeColor=none;fillColor=none;fontSize=21;fontColor=#000000;" parent="7" vertex="1">
                    <mxGeometry x="160" y="140" width="100" height="40" as="geometry"/>
                </mxCell>
                <mxCell id="13" value="" style="ellipse;whiteSpace=wrap;html=1;aspect=fixed;fontSize=21;fillColor=#eeeeee;strokeColor=#36393d;" parent="7" vertex="1">
                    <mxGeometry x="250" y="140" width="40" height="40" as="geometry"/>
                </mxCell>
                <mxCell id="17" value="Generate random number" style="rounded=1;whiteSpace=wrap;html=1;fontSize=21;fillColor=#eeeeee;strokeColor=#36393d;fontColor=#000000;" parent="7" vertex="1">
                    <mxGeometry x="10" y="195" width="250" height="40" as="geometry"/>
                </mxCell>
                <mxCell id="18" value="Your random number is: -4" style="text;html=1;align=center;verticalAlign=middle;resizable=0;points=[];autosize=1;strokeColor=none;fillColor=none;fontSize=21;fontColor=#000000;" parent="7" vertex="1">
                    <mxGeometry y="260" width="270" height="40" as="geometry"/>
                </mxCell>
                <mxCell id="19" value="" style="shape=image;verticalLabelPosition=bottom;labelBackgroundColor=default;verticalAlign=top;aspect=fixed;imageAspect=0;image=data:image/png,iVBORw0KGgoAAAANSUhEUgAAAMUAAAD/CAMAAAB2B+IJAAAC5VBMVEX///8hHlzu7u719fXx8fHl5eX+vw+4Hl339/f1fyCvPZaPGRuQR5sgMGXi4uLvRiPwTSP/zU4GoMaHh4f/ww4AHl2Pj4zvHj8aYq4SHly1AFPv3T69HV2OHl3+vgjc3Nyvr6//ykL6mx2FAEmpNWOJABuD2/cgLGMbGl3MzMz1Hz0An8uHj5AAAFKsMpK/HEeYmJjAwMCOF0ajIV6HAAAoQ2obEVY1t4x3J2FRYHiMgod8zuwyIWL3jxy0tLQAMWb/8fP8qhcAE174iCTxVCPZusj8shFDa5XwNynEZlhut9fkUiz/1VD0dEz0ODiEGiPeFkKHHk/EOzBZgKXePyS/TDagOISqRxjpohL1eABPWoJkpch0wuGzuMj/3X2FO39Ykbbzv0k/LWRoAC3baiIVBlKyaJ7cWDdwdIKON1hkbZBhKmITZG2Y2cG8lcONV2yJACzaAC+Af57q0TzcuTdLPFHQ3u2LdoBLSXixb3atYCbLV2ShS29ELVRKjaWkNjzzbyEAAF+xsNTXYCnbrdDOfSpqOZdZVqazMYD/7sZfR5+6XKX/5ptua6+eNBngprv7uav0hGv91MrRJgDxOQCtDgC7KjGXnbOWW5r2nYpMAFRgEEd/KIG0mKbJT3ynfXPHgxdwHiYnnn/blK8df3VjKXe0eSr7pkIAQ2TO7eGgdKBdADTWnzuvdW7on5J6PUmGQxFnAAL4jz5qyqd1MRiBGxKUVRiykaTpy+KHRzXEjUSwZIHzYwDVlAUhinnetHf/+N/ct7F1BiulRiihZD3/y6PB6vlmGHTAm3GvdD7FRwCkc6t8NzVnRIV8O2it4c3yWXH7cYH4k6C+ADGXbhmzWGb5vshqVUliTUuDZEBHAEP91rwbQ4ikTSOeuNkrcLbXaoNWRE63dXb3p2OmKjrz5ITNSV2ESkZlO03GdkdJqam1tlz+uYiPVHidtXZdVlXMtT+JsYq6kRqLYTaNkcbXdnDMZ42epq51AAAgAElEQVR4nO2de1hTZ9bod7iEBMLNBCyICYiQYAFhy01EZxtIvICVq0IUVAhy6RRSqoAMnFi5FRRRpGCLVWxHnX7FdkovUpEZkHZmrJ2p2qq1Tr85tTn2OjOt5fj3We+7d0LoR/beQDjfc87jeh4BuWTvX9blXWu9l00Q/z+Jk4P9RTTlCqJ5uILTlAt4eDg52l+cFQ6WSzgrnOfhCg4eHpN68CDmSRwUzBcKJ9bfm72IFI7MF/MGYXltDxHH7/3ir2byy4opn7iFOnK0JDV105GZXMQZvVVODpy/R4tDWG9Vua62tlZXXtWbz++vzG8Uvyt0HT12rLvbs/v5nlSK502ZX53fFTx6dcq4hMUrVixWxfqpVHFqH10vn3cYv7oTL5PtOpq99Pi+IxRBaCRLU6N53ZblGnwo8nU+KqW7+4oAl4DF60Kz4gQgKpVal8/5lzgWOjhyX0L0QrdnkUSSsDlzg4YYOvH8hkAe90ULInDm/K382BeDa6vKaxFGwOLYbbGgC5VKoNKtiyjn+msnBMCDoiu129Mzs08i2ZGQcKKCeOl5L2kYLwSCH4Vz+YsrTnZ21oIuEMZivziVwH3bqnVxglWh64qVHOrgSQGKQOIGGCAnNER396lwvi7Og6LaPcG/c+ik/wpM4b5isZ9AELczNHR7nHto6M44gQ87Bi8KalOelpb+030JCX2nB4iC1RvC+SqDm6Ja+XI91env4hLAYCQginWhq0Jj3UNXKZF/sF6MD8WRlCUyIS0y+Uh/f65c3tamLZEG2otCpHz5LdErAGHBQDcOGKtCs5RgUMjP3dkiEDcFtelSrhYB0CQyEKG8YFSWIvXlaVKcFOW/jSdoCMBwUTIUcXHF7tu2xe4s1mUpBUlnquZC0eW19Lgk4Wya97lBbysh0vafknIHHl4U+b+Lf/XVpS6MYG0AhfvOneuUxdtX7dwWGrpNleSqYnkJLoqj3TH/cVzy2kDaufVeg2no/netX7/LO4goEJ/nG6W4KGpffouI/1uABQO0ocS+HQqOsQo+rFrlnuTKpgx2iq5N3Z6vvyF57fegivWpekxxbv36c2lBjofAvXmOfBwU+b+Od3oqPjYhwFobguJtALA9Kys0a932UETh6m77NVgpjnR3bzqS+qZkR9FAmvegnjGmwcG0i2+OvaTfEB5oFwoduHZ8fOyvrDBcCpFrb88SFGeF7iwWZGUJgCIpalYUR7NjXujyzIYRe8fb3t5paTREGnzx5rEjYzE54bZfdgYUzrHxH38MFEozBvqIxgt3QZzKHawpNi4uDigOnlk5Cwpq031J9Nix59/cAePc2xa3Tht4++0rb3a/0HWsJNzXHhS9v44XvQUU7u4MRkKhe2ysu59AhQe+VaEbUaBNct19ItZmYmiTosvLJKGaEl7r21GUsKPvLO0SyLnfzM4+/I7nUaobKPiFWnaKcmxQiILGKFwp9fX1lZbGooFv2yRFRaT7mplSHElpriSaToA1SU6/+/uzWA1e69d7ew+8g3MRoEgNl/Ir39gpauPfepWhQBiLYwFBiv7FwoitAw/XqTBFU6TApgXboHjhUtAh4kLC278HcyralXZuFw6xaZ7nwCeyEUUJ9TxQ8CtiWCmcYuOfslAARkKpb1SYg0jkECaFQQMydSWCwBRJUlu6n54CINqIQ2fP7tp1eseON70HkRJoXQy8fdoNIHrecLpiHwrGueOXFmIM98KVUeZ7LfdDCZRAQFMMRSaV2rretBQ0RBAEI/Dl3w+kDaKBDmnDe4DWRMh73sQuoOA3eHNRvIopXBgMpc5cUeWraQLIRVRJBxGFrVeZjqKLhqBDkjfy63Pn6DCbduV5BJF92vuiU3Cqrz0oHEAXyKKWBpgxCpVOv6DI2uYetxtR2ApS01CIUsEn2oKssyZv2jO80y66YVVc3NUnktiHwhH8QoR14WLGEDC5Ri9tTZChh24sbmqKVNpMeaahwKpIC5oi+7P301+8ezglJcVt10CZaNg+FkVnUTSFGcOdtn+dwIpiaLdrrHQGuui6JGsjRs6++25/rkyORKa9tCHxEvM1Fvg0KkyxD0XVH+KJjxkKBsMHh9R8xrEFqqyd7oWU65mVNq83DQWVIv+jyNCTmWkq+r0W3fPalPPhQIHu3owBFEF2ooBk8FXCTEFjKEvhhhzcBQKLd0f0DoFB+drKWqfz7qNbL1MleGzrKWpevVrsdSo8/FTK6tV1A0FBu75YTcvoOTtZlMg9/ini1fiMgEkMZakH4ahTqVSCOLM6HCEB8Q209RrTUVDdni8cxRSe2a/pU0p8w6XhY5fE+iLw8F2XxVjyugbtREFU/RaU8apuBSq7/f0RhrJUIdL5qWI3bt9JW1VEbzVEKNv1zPTjRbdnjuFyEYpHmdkbACLKsevYeNFFCLsXxzGE/nSY3Sgc3OPjnQhR78OTDx8+fOUhYMRKAyHtQBXGKiiXQCO1otozK31tJ5/Tj91Hj53Wi/XjRdmeXufDfaWBIuKI/uIuNGac1m9FHFvf0QzaZ+wG6f1dfPzH9IBNdZ6EGqm01B31N2O3h25UqdbpVMXOVcXuUpbS0kYedTQFbjU5J7skMZz+69dXI4a098cbN7+zFX52eMx+FCLdryGPKu/tHT7p748hlEowp53F7tvXFceGhq7Lz49QQnpl+xVs5rSpKZdSUs+HgzXhhOCFc2gcf/+yuPHyaaDQH9aUldiLglDoYv8Qq/TzUa4IWPFkbOnKwkIl5OShOyPWZak2hq76k6LYb6WvlKXVa7O+cDp1/pQUFBFNq/roOe9dF0+/g1yiUSx+p+/E0G77URBrSmuVWApjS0tRBV4YtxFVFhtXrQoNDXVQqnS+UrYin6ViDYvyjVpjvs9Nl4suu+n1dIA6nSCR2JWCiJZKS1euXFkq9V2pXAGxarEKyu6dWatCt8Wuc6hVxUqlrNUxa/fAKp1PRX4yXoQj1DsAceIlZFH2qJJoUUShCs9XGvuky0lE4adSCsAvVm2Mzdep3eFnrO1Lnt1mCnm7ePPmzfCxEXXOT4/p7UoBvxW9JnClUqmrD8AUUFjsDNWtC/3TRgTBEdN5UyQjjK2YZYdkR5H+A7GdKeBeyv38ynVKPAsDFDshOqn+FLoTQXBMKPGk6Lok+4UUaO1Nka/0U/bqlPQsDJR5G4GiajsfCL4UR/KYrrmMaTrLC9bamaI36Un3/MlZGAGMGNvKa31iAYKzk8qT4vXVQXIgkAtH+kfoFL1gbY49KUTlL/qfDIulZy/oWRhVcW2hn86XWxP855KWFATt6h8Jqnstoagfl0sFufakEOme9D9JnXzyV0ztjWZhBEolDHa+vjwmWXlSHD13aOB032tvo/7UmwPvvjuQVnAuJ5w9/M2AQqT77dKH1En/AAsGTmXRiO3LZ0ziSZG669A7OySSBBgpJEWv7dhxehemsEdvEEnVr+OHiYdoHobBwBRKgIjipW6eFCnebW/iecmEBNS2lSQM2JOiOjb+LaKTnhGjMRAFJIB0XeTorAjLz8+vtn01fhRUSsEHb+6QJJy+cvHi+68BR99Amh0pdC/Hv0oxM2K0NjBFrE5XXq6rdffzUUdE/PnPSe69c6PouvSXC6/t6LuS5j2wKw33C98dOLfBXhSKX4EqylcwJSvWBu0XAghZtYBSVVXV29S02/XF8rlRfHiqQpJwJe1KkeHy6V27inaAZ9iPohdK1ld/p7TGUKKWQWFhYS2CKAeM3qEhkejgiza0wY/iyIcvVUhOe18xoBq2yPsiOHmffoN95i/ojtRTcOtWGECxc/tOP5VABRIXF1dcHBnpOkRF6uZC8cLqsat/ft/7NbpJe2UX5INFg/aicI6Nf4qIX5pgjeGO5192xlmaOUmuIMRBv+mrDH4UR9e2XezPFfYvwTIi7L/YP7LEXhSoIfVq/NKAKRh0lRRH98zjVHGIInJod5J0DhSbtKNBMnrGHidS6ONqe1GAWxAfA4UVRsDiuKxQvABEpVOqVDtXbcMUTRVnpm/+86NIHRn1nkxnhTIhTWGX2Unc4nwL9QYBg3FxlA1mbcwCLWSFblSqtkN2iyxq9+4z07fN+a1m8XrP8Y3NJSm0XIZCyQ0+24uiHJwbU7hYtIEo4tDyDyUU3lmoMVXriuXMymnzW34Ul9KIgoGPUIRKTfUsEov1RfDleTtR6F5+iqGwaAPXF6ix6Q7esa143fbY4kiaonT2FF2IwhtGC0+vTZu8NjeKxeMm+1HUxlsozNowUwhUWVAr6dbFuu/c9tc5U3z4PvFHNJNkQBSZp1HZWpRtN11YUTDasFAIiuNiwZ42rgoNzULaSJoDxZGe48Tf3gOMjzLRgGFA5bc+1V4U5diiygJcrLRhoVi3Lk4XGrp9O0OhnAvF/ePE1T+/5502cBk30osQxqXzdloHUvUHGLrjYxdbY5j9YlsoKCJrVaxq50ZsUe7TV6/8LAp0UYHyWG/Uf0718rx8ulF86ZSdKGDUI16Nj3W3wqBrPRyiVm13L964szjuBII4YWNSjB9FpkRESf58JS3tvWzPTambIJkyFGWf4rvkjrvz/7FjPJTc1hiMcyPfLo6FaBuHQ1RS6fTtSF4UohRJBUE0nQ8Kei/ba5PnJi9kV16npDbXZcyIAnX+n8JrD6wwGIrYbeviUEpFjxdnYm3MYfDMaTMlkgqNw2jbqaOpmzal4mkmL/YG8AwoiJW/+u3LqP3xq8UBjCSYI21cHIzfYFa6E2cK3VdKbbxxfHsgnveXFg2kFVQePUozeHafD7fXijsirFTnTvfMExh50s9KUHtHt7K0VOortdHf5ru2mTqfU5LqlZLthSW1ZAOanuG5jp+7exANN1iKmuZTpRSLFPeh0SodZi7FBgWf1fKiaLjtREakaGaDT6PIQsGxWt4jEO6RuVtrkVrENyo6zOa7Ru8c4revwEkRFh29JhDJmugwnstQCVoPnFcQOVtenJE1INHRYWEKhYeDE3ttPKuNKjMTZ/TiTvyhZy7mrTy8N8PMXBzn/40y372jYr4u4mC2JQXfPT0zFZHVvXt4OMzDPjRnj8l7d/CY751uSByd7C+/2HU4D1fg1/D+f0ucPDyc7S8KK3WL5uUKHh5Wg51iniKhyOIYzvMVB50t79S8hShwagfrT/MhIsWUK82P4JGCzx5Tiprle8ncPk9lU5TzkEajcaaomVxDhDMQrhukrqc/vWxh+vVbUy9I8bqWwnIdrqtohutJg6mnx2AwkGTZcOcQj1efvAaXKqiFwcW1164tXLb+GsV858a1dCzXrt+gOP4aJzmOnDktNWzI1IsHBwf1dW5YQkIM5AWuFzdfg+CeKU7vq3JsO3Tk2sInUtJx8SVKX/90IdqU6x7XRz59g/2v8ajBSXGBbMwb/KFmb6FKrd4MBCE0CdlpL4pbn/gQvZ/KtZ8sW/jE+puB6Dspu6iu/N7eqlqVn49f+kusRs+HgqrPzBscq1KrVaq9e1Wb3fY8U0djuBnq+QRoHhTX+3qd1HEjt+8sX7ZwYTraz3hjdVvb+qeL1XGo9e9D3mRb5MWHYojsl38QqC5GaymfeUa9eXzRoj1IG4jEQPKoWrkpqPQIj94IwWdqlR/CQIuhrq0d9dY+kZ6EC3C/vvusW7m4KRTkEllbgfxOBJoOuXMHLGrPorMhdc/AB4SRwd0I4aa49UktoVThGRfAWJYItfBC+ahQZsF4Mp21EclJQZH6ZI9TQpnsU4ShVvttxr79zKJFi8axUZVxYnBT3CB7qyOYniZgJEo9qCeC2uSTGElzpKhvzKN0EYIHMtkdvJEAU7iFAMQiOlyRNVxGxU1x7XNF1eQcXnqiVEGt9z4kF1owktKl08+F8aPQZObdBYtVPftAJmxQTVIMIOegI1UGVy+Em+JplahQjSZUaQqp1PlWd0GBXDiJAWQsOTgXBVmZ5fjY39EGIaHsUzXawL+ZvvcvmIEDbKomcI4UXZ+UV0d82vDs3tsq2nqkDrfW/9FbLpzESE9ke684KDqffKz6Px977DHwiJ9lwmfVDW+872aRkMOHkTpCysLZMxhOihuG/N6IXOED2W0wWj/wZKno1vobWmYTM8LwAQqu3bi2Ker//g/iH0Dxd4Fqr0z2ZZ1Y3GgyMIPF4T2LFg1gz+BoO3NSXO/zqAWTBdd7lo6qvsSN9TeWrZ3EEMyFgsp47D9Fjz2GlREhlK3eb8r4Z2VlGelmhJtHYWrRQAgyKZtb0PhRpBdWQ/gQCuXIaP0yfgPx6MbT15cttMIACq61zTYpNAmPVVdbUZCVqFfqW2kw3nSrQxCLnkGOUcm+KI6Lgkovzxfs/Uz2YO/eBtAFeRNRLP6fMPxNYiybC8WZSQq1XJZTGS6NCoO/GI65F0NTLMIU7HukuShufdJbFaeKyL2tRkHKZ/m+8DXE9bLa5VMwatjeKXaKzjKGAvziS5nMlOhLrx3TuI0ZaYtC4Takkn1WiYviBplfC2H2Nj1a+Cw/JY0mrn/77wfWGJ5zofiwBlNAqI24KJOTiUyzXxMzZgz5AjD2uNG6mBPFtc/z0ZDHbKbySa+Bq1xfAqPsJIbMaw4UMOZ5OD32dyXY016hbInJ/FL1MWPo9r8YZwYM2zuG+FCkF+ZHWAZugR8auiEZFKLUcCGDMScKhSlvjKiFN0otyJXl1uUwbqwJuTcWE2IZN0hbUzz8KKh0nVX6gSmcgQJ04ZMBykimKfaxzflwRFoy73WiKkId8WUujBbf6MuwG2sMN7tizp61jN2VHAt3OSi6PoFKyJoCTe9ce+/2pyoEIcYQS5bNgYIYXn2OUDTchhFJeDtCmUcmQmbZabipMO6hgyxWRaIvW6bGSXHLUCUQTKVwJK4lqdWTmliycE4UmsOyNqJALpPlfqlWNSSbanydh0PuUUYcZnGBgVXBPk3JQXEj2NqgsEUhCitzWrJs+fK5UBD1/TKCKBi5A5Fc/b7YlFhDxowp3GK+sFAYynylUextGg6K6306K4PC44UTka6aAuHjv49tTOKioEjxV+hIoWKV+j1xY1kNGTKmiYEhYg8TZTeXSVn3PfGguFZodgtVgwBng/dv3UqfAuHn4zInCkJDfjh4lyDKv9YnN5JlBjeKiU51dXQbJJF72puDIr0Q71hVqyPuXEGFmJ+AXL6cnAIBacncKAiP+p79g18NivWmMsifqJdi6ga+sOTmZI0v9woEdgpROq2IB7dvM+WkwG+qT/jQyRXLdfh0cjQZBpOJLKtJJGNAE5B5PMOMFZmmynD2AY8HBUVTqD+VCWVf0hQ+1iF2Oaq77UBBOAUm1kjDwytDxhTgE3voWjUz28sr21RWw90h5kURcQfuOvc23X36hSaAImPuFOgUwDVrwoZjFPdikEugEolZhQAcL3Fx8KFQfYZWuD64WDidJgS46AicMwWW4ZixsT10uc0wgKR095CauVBAUEUUtz9TCh88q55WE3al6Ay5SfyvuqkQ3V1HSjINw6xzhFyRNgkrQ6X++aJ6ek3YgUIzvJQk61F/nDLE3LsAJnXYwpBZ1lCc76iL6CtjS6Q4Rz3mXpVfqgRTo5MZAr49JwqqvufDvDyxPgeZjYZ0A4hMM4OxwQeMIaKKKI8IrmTJD7jyqE8YsxGobGhC4Ff4xFwoKLIx74e7d78Si/WGQEdCMUwaDNm0PWWiJhvqaEfoCF0cmWh7AOeskszKmEYTfvhDYfb6+7OnENXrk0cJ6u5XeWJIP1C6FF1TWZZBGjK9PkJvoOrfX2JtOKj7Km33UbkouhbSLeXpIDJP+wCEZ0nVHCheygSIxLgI1ddisTgDpxqOYYFR0pqyDNoKFv2IqrSI/N5i0nbOydnJufX05z42ILq7y1SF2SULsuZAQebdJfbiXjlgkJbc1dFZUf85goi7/W+cyKkVfsE1NpXBo/O/kEzymQ7C63/UdBsBYi4UQz2DxJoIlRplm0CRaLVX0iMYG0Gc+aSL8s9tN6V4zCVR159e7r9s2cL9a9dqZdYQCxac705dgCm4zj2wRXHhww+IWvXX76sFqm/AonytG771SUziJmhoKFTp8oszbGZUfGYnCed7v7l/Pz19eXr6E/vpwY6GWJCa7ZkIFKwTGKwUw/vvOscJxOKv1Wo9eLev9b7V4RcxwxuZqSgPMeZHZCTaugwvCviV6KhwEGnN8nSkCZ9MTxqi0NhduiBr+awp6veLwiK+QUvj9WKxsWbKWRbDSaigSTWPHV2ZUGnY6M3zpDCLyCF9UhNe2fBWAcbOOVCIifyIr+kTG6BatW6Ni5aqBKo3UB61f794//6Urm5Tja2ab4YUkFklKX3M5lQIelEbu/fZiSLnn9bu29nn5/cNYjAfm4MobMTaWVDUmiEECOIiYMzeL+rFokkKsalssmbUkKD0VK8U88/Edy/Zk0KwwdNKEz/LBD6muXj3qAL7BaMN8gJtM9QrZJJAZfTywmrIE+eJk+/m2Y+Cejrn6KQmVA179jSo2CdZOSLtXZGy0EKRnNpjWDo8PFxP9gmwKrA5nV/3j3XfDt7NMyTajWJ96kaLJgTqke++34spOHZG26LQZH4F+WqdBSMFF3cvJqG3yO9JrIq8U3h64y8/wNBua9ibKcWt9Ru3T0L8/P3j/8IULHt/WSkog5iItjKpFJyP0xmUXxn2ikEM8dh/DurLbB4nNWOKf67C5oRrwIY9Cx7/12dzoSCGP7xLFKr1Uyg+ghCrVsWpPsIU3zIUyTmVvrYuM1OKG+WhC1IvXflMEKFWR4x89zhNYfPlOSk0pkEiMKJhqi5UqoZnFv1bTeuimaFAWVagjVeZKcX1rD+lZp8N+tePDz69ffb7x0EXt4HC9tlw3DPFkEl9Y7EphkJ9Z9Gi75/9G+0X5QjiH6ca/2n78JGZUlzLUpQkKYO+e3zBd//6Htz88Z/uqBGF7YqUg8LDkDdKNai/saLIBL/48Zm9KoEXHaMQRk0e5B82NT5jimNdhSr1l3vg/h9/HFOcLVTPhYK40JMs6mqIaNBDtSfej/fB+IFfqKFEzmEGvW+/bc7rYWv/z5Qi/ZiTUoWD0wJGfvr+wUKbaRoPCmIYyr2ubyLUX+sZCq8Gpkhu8LKM3Tmo/W/zJWZIQS1MckRd9Gcf/GTGAJWwLj7g7uTUZybfFZ2Ke1bwdZ0YU5SZ+/RGxqbEJRms5wrNlCI9zlGH5hLv/GhRxoLHl8+NQjTck/eD6O75hmcj1LiJU2JuvPgY6XQwJyOR9VyhGVtUsSOaXYoTfmfRxXf/eoJt8QGf3uAF0/7kH0bv/uW9ho+wMp60dOyM6L8mNBHD1v6fsXcXo0WE6k8n/eL7B3fw/PFcKAhNRmZe3ld3Rz/4AVdFmZMtu4bMTBKGO/aJmBmPF329zhFxe4MWMEEKYtSzatblLPz6tI7DZMn+PPHgD0def2FTqtkz/PySPs+oBGvi2PM24wzkE3eoa0Z+AoKffgSrevynn9Vo0dRc/IIWRSVpKtHn5XV7pcKo0eDn5ydI6ssgEYN0DUfrf+b1RbDOwfHQdz/9+ODnz9CoARSf7Jt9HmUtYTWVGaTJ1NOTmZlp6svIIMsqa8CWfNdw7heYMQV1/ZPgr9rCwnp1teo73wPFF8vvh7MtJZtJ599jTVRNTU0lkpqaRLx9MjCMx74gvmfcWUnXb9Kf/mS5PwmS8pvl6en74GIsN0lvYeX9AC4HRXRgYBSWQN7bJ/k/9clKwqJq9u3bd/MmfKhBb1ggm8rpV5/HTYcE/fAt55nv5XJ0DqO3hK6JDuN4lJqC+YPZ3B5PUVh9nB8xb1Fxnr8tPcyWJ9H8YThbdOAwP4+/E1kerwcYDvOyhctpyp07zMNmOmdn6ys4zccFPOZzY9h/m4jmQf5vX8LZw3kentDpYWW0Th4e83AFuO/JN0kx83jOTyz7uz3mK5pP7u+e/732zvMSA2lh7n5+zz1Aap7Pp4zyf3om5TGkGdIoPDyoIbQJlJEhDz4bNHE2OJP3yaH6AJL8/DCexwzg+xdx/W5nmSHEYDjsZggJuWwYN5AoO8/s6ekxmQxojYiG3almlg1WT3S0//WvLSBnWlo7qqLW8PhT/Jxfrsz8FUPm4A9jmra7mrGxC3+UkaRYnJyczHRx9DlQtbKuLXLmTyE60NqypeVbufA/rh5/LiDAZcuZdp00inNPoKMDNwVFksME1aW5e6izs/NCQXNwTrI4x2hsxBCNUALkiA1RLPGBP8WB1lPCzJMVbaPoqq/4uwT4dzpOtFZJ2V6dL4WG3OqoMWSSRhnYz7jcQIpLyODgYBL30kmTZ2awuMfmRNIMKKo7arSyAgq+Gm1reuiCjnpFG5edOzq41onyoRgmNxAD8JYH5xrJ4ObmYKMxmGzWNgdjZZA9XtnB+pxKlkci8KQ40DogK4DPVNPx+h3ovD5/F8r8Eyn71ic+FPWG4VFZLmDUjcM/hGPUykbIYKwLI9kDymm0PXvBl2KiXBg0ShBDD9FZxBjiJDUJ6MuKwYNCRO4f07hpc4NRFUyij82yXFBHCdOjNRn1iML2rkBeFBMn/I8Aw0n/LRYI/H2qqaJpiDjAblQ8KChT3t17JNnfHExmenpmm4LHm43BwSa9OUhhHy9jeQADH4qJli2dhOihv8skBNZtRSSS3aKOUl+WbYc8KIYMOVSOCSkBGLI9PXvAsckcEOQXW5lwW8ay2pwHxURL5BDhcXALYpA8N6mJikhXgHCN3F3NalM8KDRk8BC6cdBED0kasj2xYSExiRs3N1oobEZDbooDLZFNxFAkfnywZAs6iJP2iaFIV9evtOeec41s6mDb5cGHYuuutv46I0lmZ6P77/Eykcbx5v7c3HGIUnqxHSiq2yN34zt2RRT4oDsMgezpnEwo04IyDpSzaJsHxYWtA4e02tw6hsLk1UOO5Gpzc/uNdKxtPOzm5jYnio4TrjQE4kAM/swBF7sjt+AdYg8jDyIKm3LOfS4AAAt7SURBVEMSD4phsn4Yj3LZnqYMEn2k7Sk4OAdpAa04z+5h25vERQH2NES5MrICQZhPhdgd6Yr25MqeAwrdHCkyX7+JxgijydMzsyfbMxMUYjAac3KwNbnhZ9Uhitl6tyOyp4OMKp5DEK+YfzQUGXlTLpN9GxlZMVdd1O//4WYw2a8FY/L09AKIcRgsjEyg3YohPE01vrb7qBwUByYqqCYGwhWf/Qj25HBgYmKiGuAin7v5EIIUNVHF8lgVPhT6fcHjcq0BO4UJPhi1IzCI04OeGz7rNZtzdtI2hagVhssm10iLPblARJpo1ZX3HuiYoFxxqIUwDEmI7cOueVCUmerrIAEJNpHjcPPjiMZoRERozDD0oDIDTewFzpIifwJ9pCAc0fYU8JyrpJ1JYzsOUBXAsZsiWN2CB4VoqaE+t5kMzjEG534BedRIcCI6PbHGPAlQWVmT6Mv6nAp2CrAbLBS4MtLECldJq5TJLUUdB+AHCLWV9YlJfChyMmDgbhSTpAxUYNJm+PpGhYWFRUcHmicB0DQAS7nISiFqpcxfDj2H7ckVQZhTy4mOfCen6onWRNbtdNwUFAklEcTUxuA6mdFgDG4u430YKh+K6pYAURtD4XJf7/Kcazv4scKh2tnZAU0RQQHbAXVrIGudxIuCzl2DR7SksTF4vMzmcq7ZUBw48XBUHoQ5TubIG10iJR2JutbWdpDW1vLEwDA+HaCZUGj7YZwD10Ydg+ELGsouFBMrOm9p5fKCUUKzWib31xxsb22X4LgUGSlpaW8t5yxX+VEY6FXBOcGQkOvh0/h4cLN2pHmcHObYj8SLotWFOrlWKJQLC4Qy2eqHhHPrCVfXg7srmkB2Q1bV3loqjeJqK/KiMKIiW0/SKQf8x4gfV6DdauDaV8VN4dguoVwG0UJ/uVwoy6QInI0fBNldMURBAAZ9lEu5HJEHhSmH7IeKW6zPYboe/ShBEzbTB0jxcBE2iur240MnNjAPxtLSqQc9kCOTOljhRDRJ2js4ym5eFKY6mSwXV9k4c1qC8rMRN/N5XoGcfWo2ivyWq0MSiZymYLzckt8CimuFiDreMvfugcJk+kImG0EUJqiLxMnoKKH+kMmtrCw7krgpDrRUVEiGGQqwKu9R9F1LWoUqjiHiakvHXLsHChOMFM0k3L8+OAcqirVQtoyg8zNCDh9GCgnJ4LMz2tavTLQ0Xd1nhpjksMY40URcbWfLaPl5d3IJhFfceyLJ/WJ0SaSDOi04R3+IEe1TZ+/zclCcZ7wCQoZQq/U+hCimYlQQx9vn2j2ob7R0Oxr14tUybE8hzfQ5Hf2asRiD7S1JnBQdLRoZ87Q7mf7+/QBLgVRhjTE01DLX7gFVZsopaWzU6/HDM5FvoxKVsQLZt8RNN5L7JA2bFPcOyXMHcvGeqiEXS51XfWCiRTLpGhKqAuUlc6m7IWZA9loGkoHS8X6tFrzhsNmQczWKGENlONu4xEpxXCORtOxDBxZ5E0Pmmnuitby8aqJVYsGooFgdnBeFyCkasle8aSix5m/BRkRB6yJXJt+AlcFmU6wUkgp4q28iikPwduGHiVETHb6+MM45dUxqg7ranmi7nOTTyRkm0cGbLzmJ0IymIiywhgQMXNWPbJXJtiqQZ7AliNwU9xHFKPwXPdgtYEsHsw4xv8VC0dTUwhKmuCmGQ455bUr1PGa1jduhPsRtq1ao7Q9BFPsIdChZ4OwoWhHFFqCQB+H/A0ZAizkeObRblHGV1aQ4KYZ7UrvgE3XEK9twwXwvFIm228OQMSIDVxfdiyHZFmGx6+KqROJyXy6UF9DfeOjv0m6u65zarUwKVYC2Km8uCo3JC3Kyrq6uI6menmSNOSt7BQ97EG5luSExY9ikZjcLgyi2BNwHg2ojOlF4Ep2cpKi2ULieGMJDho0b5aKoP9ZFHPXsBkGPc6s036smZOvhrc0QIGVb3WLuOaJjZgJnTbEC62KUcPFHNkv5Iz/GyVlH/m7zqBE5dLXddi+Hg4IKSSUG85YsWZK83ws1bMwLKSk35mlczaCUm4QxZLZzSYgiACjALTT+dHu28wQ9WSGamCAoC0XT1ZYqm/1HDgrNh4cOyen7lS9JAQrmdYbG8YibuxVnhcT5/rJZzsJMtBzfEuCyXA5x9mSASwDu9z9s6ahKDDzQeoCYzEQQRflsKV7pbwuSM8/Elcn0lq0iGrfm5ua6w3RmGyMqyLW9K4krp0Xt5QC5vA2PFbi5SQVsaWlvYTo8B+1AMZyLTiYVanNHRnK1svEa8+vUh5gPDAYvj3EEill2mw+0oOkKF6GQeMU/YAvTLdf4BwT4M8dQM7VGZNPB9llbFFDI5P1b3fBNH0YbFPCvdo73u5kpQrZqR2dPUd2OZo4eBhUQwIImYGibAr0MHkJftY3SfejIJteWWXs3UJirOlSeMqfiaEwwco80o6TQbeuITD7qPTJbCod2nDoFtcH7/xya0cPZIHqs6X0YQUa95aO0MiKHXFGkteF7XBQjd2MsVV2zsawmjKA09SZctMI/rRZcXygngvr/Odv5i1aUOREFxMOAADSRxEwjvQIYWrk3HgtxtI0cioRRz9acGJd3x4xZKCDbaF5uMLjVQbmxWisz1zZCuWxUVlfJUsSw96MWByCXpgJcVtAzk/TsxUkwKfRw6lGCjrYHmyJZKgyuSEsfLIhVkSuTJcPQt1amRQXT6rVyywPJ29YaZz1/ceBEAPLoTvBtiZUyNDlr0fskR+0ENNFasVuis91Z5aAYCrm3z6IKoSwFKJbIZEvoyi959ZIla5csWX33hzxSOtsVFE7gGPAJBgvzDKv/Q/T9/13SDHYrRxigDOTcpbanYTgoRKTxHm1SKPHTohkXdNaF9YS9WCxKRmciBM6OAkwKGZR/wAqaApThTxG41AjQyg4VyNqwMpoiW1neKK48atjtHqML8Oe1iGI/mrq1Ysj7AO3tZmtRsFNUt1gbFFaGxTPobB2UsZvVoLhzWsNNo8WgluCnoKF+1NpJimRqEKmCZacKx7xeRz4MEGaDsvIMf5f7S8wzxhWRLBktNwVFnwvsFtIPFMl4JhId72l2DVAF8gr2M+I4KKpbRZSLywoLxRamEQKuQrsI3IWrhLWvxlkldRrMEUooE2MKfDCScPWkPeVAmGU7p5trvntiYmjSoLAy8ACOclzsIiAH59qPKsNDd4hWaKbwpBsHGCPvh7t5JRm+rI07HmsPdk+heC6AXntgNX9/oINV2zw6nCSmQHktbVE4StEYCKKRfYKVD4VD+4pJt5gMtqiVQC/NcW5NtFmt8qMAB6dDFOPdtH/TGHc/oCHYH0fOvSanun2FFYXZv6kA84qQDraWGj8KQkOG4C4aHWnNypDLvT8YzMspA4io2fdpGclvl0xVBu63QGqLtTLBOtnNk4JQLDUcxvmAF4OBmlFBBd4yvQEdDc7RbOa1Vm0qBmNSyL8DAKJ2Nms4pzGPTnJrLuRN+xmK/biE7TdmoH2HgXxOTeRcN1jd2jJJsYJZIIX8u6mDSxPTU0ynGepChumL/uT1DMbq3OZxsgwx8HiEJr81nKKJ9pZfmtQr/itOoEXBs5qdnPbNdVxT8zfUb0aSkVFWWSMNB2OK5rEKnv+qYAsHbVKOTS1oppj7faIpfmHYNuxcpFgTJaUfnol2M0qj1vB7cBf/1fLVE63tLYhk8YotByY6Wmv5LZanNzb+8hoszi5yRo/QjI4OU/DfizCjNf/V+QcmJjo6JiaqevO5tkxOucJ/ucZ/2RU1J8FP+ZrX3ZnM/c/jxkbzfpv53G5jfm2nedtw42h+g+ZncyaSyY2HIg9nx3nYTOdgtTPM2cNhHq7g6DwlxIjmYTOdw9T333E+LjGfG8MeySN5JI/kkTySR/JIHskjeSSP5JE8kkfySB7JI3kkj+SRPJJH8t8k/wc6i60pqcZ4IgAAAABJRU5ErkJggg==;" parent="7" vertex="1">
                    <mxGeometry x="720" y="90" width="193.14" height="250" as="geometry"/>
                </mxCell>
            </root>
        </mxGraphModel>
    </diagram>
</mxfile>